<?xml version="1.0" encoding="iso-8859-1"?>
<!-- Generator: Adobe Illustrator 19.0.0, SVG Export Plug-In . SVG Version: 6.00 Build 0)  -->
<svg version="1.1" id="Capa_1" xmlns="http://www.w3.org/2000/svg" xmlns:xlink="http://www.w3.org/1999/xlink" x="0px" y="0px"
	 viewBox="0 0 512 512" style="enable-background:new 0 0 512 512;" xml:space="preserve">
<g>
	<path style="fill:#E6EFF5;" d="M355.584,182.029c-4.267,0-7.726-3.459-7.726-7.726v-35.026c0-4.267,3.459-7.726,7.726-7.726
		s7.726,3.459,7.726,7.726v35.026C363.31,178.569,359.851,182.029,355.584,182.029z"/>
	<path style="fill:#E6EFF5;" d="M144.314,182.029c-4.267,0-7.726-3.459-7.726-7.726V140.87c0-4.267,3.459-7.726,7.726-7.726
		s7.726,3.459,7.726,7.726v33.433C152.041,178.569,148.581,182.029,144.314,182.029z"/>
	<path style="fill:#E6EFF5;" d="M250.918,182.029c-4.267,0-7.726-3.459-7.726-7.726v-40.63c0-4.267,3.459-7.726,7.726-7.726
		s7.726,3.459,7.726,7.726v40.63C258.644,178.569,255.185,182.029,250.918,182.029z"/>
</g>
<path style="fill:#EE81A7;" d="M262.367,125.495c4.643-1.009,9.212-2.736,13.548-5.239c22.507-12.994,30.218-41.773,17.224-64.28
	s-41.773-30.218-64.28-17.224c-4.336,2.503-8.116,5.597-11.311,9.114c-5.637-8.931-17.357-11.904-26.585-6.576
	c-9.458,5.461-12.699,17.555-7.238,27.013l44.032,76.265c5.461,9.458,17.555,12.699,27.013,7.238
	C263.997,146.478,267.283,134.843,262.367,125.495z"/>
<path style="fill:#FDEAAF;" d="M183.903,68.61l-56.242,71.537c-5.914,7.522,0.373,18.412,9.845,17.051l90.074-12.938L183.903,68.61z
	"/>
<path style="fill:#80B9F9;" d="M454.057,294.39l-36.038-105.609c-2.955-8.659-11.09-14.478-20.239-14.478H21.385
	C9.574,174.302,0,183.877,0,195.687v139.681v75.724c0,11.81,9.574,21.385,21.385,21.385h469.23c11.81,0,21.385-9.574,21.385-21.385
	v-64.656c0-6.942-3.369-13.451-9.037-17.46L454.057,294.39z"/>
<path style="fill:#3185DB;" d="M502.963,328.977l-48.906-34.588l-36.038-105.608c-2.955-8.658-11.09-14.478-20.239-14.478h-29.618
	c9.149,0,17.284,5.82,20.239,14.478l36.038,105.609l48.906,34.588c5.667,4.008,9.037,10.518,9.037,17.46v64.656
	c0,11.81-9.574,21.385-21.385,21.385h29.618c11.811,0,21.385-9.574,21.385-21.385v-64.656
	C512,339.496,508.631,332.986,502.963,328.977z"/>
<path style="fill:#E6EFF5;" d="M0,367.268v43.825c0,11.81,9.574,21.385,21.385,21.385h469.23c11.811,0,21.385-9.574,21.385-21.385
	v-43.825H0z"/>
<path style="fill:#CDD6DE;" d="M482.382,411.093c0,11.81-9.574,21.385-21.385,21.385h29.618c11.811,0,21.385-9.574,21.385-21.385
	v-43.825h-29.618V411.093z"/>
<path style="fill:#E6EFF5;" d="M335.143,207.369c-7.937,0-14.372,6.434-14.372,14.371v58.278c0,7.937,6.434,14.372,14.372,14.372
	h118.915l-29.695-87.021L335.143,207.369L335.143,207.369z"/>
<polygon style="fill:#CDD6DE;" points="424.362,207.369 394.744,207.369 424.44,294.39 424.44,294.39 454.057,294.39 "/>
<circle style="fill:#636D70;" cx="104.87" cy="432.481" r="47.08"/>
<circle style="fill:#EE81A7;" cx="104.87" cy="432.481" r="16.13"/>
<circle style="fill:#636D70;" cx="383.99" cy="432.481" r="47.08"/>
<circle style="fill:#EE81A7;" cx="383.99" cy="432.481" r="16.13"/>
<path style="fill:#FDEAAF;" d="M493.494,395.48H512v-40.096h-18.506c-11.072,0-20.048,8.976-20.048,20.048l0,0
	C473.446,386.504,482.422,395.48,493.494,395.48z"/>
<path style="fill:#E6EFF5;" d="M69.119,219.791v103.353c0,4.652,3.771,8.423,8.423,8.423h170.034c4.652,0,8.423-3.771,8.423-8.423
	V219.791c0-4.652-3.771-8.423-8.423-8.423H77.542C72.89,211.367,69.119,215.139,69.119,219.791z"/>
<g>
	<path style="fill:#CDD6DE;" d="M256,222.699H69.119v33.138c3.496,2.069,7.569,3.262,11.917,3.262
		c8.712,0,16.331-4.772,20.381-11.839c4.049,7.066,11.669,11.839,20.381,11.839s16.331-4.772,20.381-11.839
		c4.05,7.066,11.669,11.839,20.381,11.839s16.331-4.772,20.381-11.839c4.05,7.066,11.669,11.839,20.381,11.839
		c8.712,0,16.331-4.772,20.381-11.839c4.05,7.066,11.669,11.839,20.381,11.839c4.348,0,8.422-1.193,11.918-3.262v-33.138H256z"/>
	<path style="fill:#CDD6DE;" d="M247.577,211.367h-50.812v120.2h50.812c4.652,0,8.423-3.771,8.423-8.423V219.791
		C256,215.139,252.229,211.367,247.577,211.367z"/>
</g>
<path style="fill:#AFB8C2;" d="M196.765,258.16c2.082,0.607,4.281,0.94,6.556,0.94c8.712,0,16.331-4.772,20.381-11.839
	c4.05,7.066,11.669,11.839,20.381,11.839c4.348,0,8.422-1.193,11.918-3.262V222.7h-59.235v35.46H196.765z"/>
<g>
	<path style="fill:#EE81A7;" d="M81.036,241.587L81.036,241.587c-11.256,0-20.381-9.125-20.381-20.381v-5.718
		c0-2.276,1.845-4.121,4.121-4.121h36.641v9.838C101.417,232.462,92.292,241.587,81.036,241.587z"/>
	<path style="fill:#EE81A7;" d="M162.559,241.587L162.559,241.587c-11.256,0-20.381-9.125-20.381-20.381v-9.838h40.762v9.838
		C182.94,232.462,173.815,241.587,162.559,241.587z"/>
	<path style="fill:#EE81A7;" d="M244.082,241.587L244.082,241.587c-11.256,0-20.381-9.125-20.381-20.381v-9.838h36.641
		c2.276,0,4.121,1.845,4.121,4.121v5.718C264.463,232.462,255.338,241.587,244.082,241.587z"/>
</g>
<g>
	<path style="fill:#FDEAAF;" d="M121.798,241.587L121.798,241.587c-11.256,0-20.381-9.125-20.381-20.381v-9.838h40.762v9.838
		C142.179,232.462,133.054,241.587,121.798,241.587z"/>
	<path style="fill:#FDEAAF;" d="M203.321,241.587L203.321,241.587c-11.256,0-20.381-9.125-20.381-20.381v-9.838h40.762v9.838
		C223.702,232.462,214.577,241.587,203.321,241.587z"/>
</g>
<path style="fill:#636D70;" d="M354.897,327.606h-27.3c-4.267,0-7.726-3.459-7.726-7.726s3.459-7.726,7.726-7.726h27.3
	c4.267,0,7.726,3.459,7.726,7.726C362.624,324.147,359.164,327.606,354.897,327.606z"/>
<path style="fill:#EE81A7;" d="M363.916,146.493h-13.985c-7.724,0-13.985-6.261-13.985-13.985l0,0
	c0-7.724,6.261-13.985,13.985-13.985h13.985V146.493z"/>
<path style="fill:#80B9F9;" d="M403.609,159.52l-39.693-13.027v-27.969l39.693-13.027c2.158-0.708,4.379,0.9,4.379,3.171v47.68
	C407.987,158.62,405.767,160.228,403.609,159.52z"/>
<g>
</g>
<g>
</g>
<g>
</g>
<g>
</g>
<g>
</g>
<g>
</g>
<g>
</g>
<g>
</g>
<g>
</g>
<g>
</g>
<g>
</g>
<g>
</g>
<g>
</g>
<g>
</g>
<g>
</g>
</svg>
