<?xml version="1.0" encoding="iso-8859-1"?>
<!-- Generator: Adobe Illustrator 19.0.0, SVG Export Plug-In . SVG Version: 6.00 Build 0)  -->
<svg xmlns="http://www.w3.org/2000/svg" xmlns:xlink="http://www.w3.org/1999/xlink" version="1.1" id="Layer_1" x="0px" y="0px" viewBox="0 0 512 512" style="enable-background:new 0 0 512 512;" xml:space="preserve">
<path style="fill:#F9DB87;" d="M290.915,352.389v124.7c0,19.287-15.635,34.911-34.911,34.911c-19.287,0-34.911-15.623-34.911-34.911  v-124.7H290.915z"/>
<rect x="221.089" y="353.583" style="fill:#E5B94C;" width="69.821" height="27.332"/>
<path style="fill:#FCEDCA;" d="M328.077,353.583H183.923c-15.206,0-27.296-12.783-26.437-27.976l17.032-300.626  C175.305,10.969,186.907,0,200.942,0h110.115c14.048,0,25.649,10.969,26.437,24.981l17.02,300.626  C355.373,340.8,343.295,353.583,328.077,353.583z"/>
<path style="fill:#DDC89F;" d="M181.447,325.607l17.032-300.626C199.267,10.969,210.868,0,224.904,0h-23.961  c-14.036,0-25.637,10.969-26.425,24.981l-17.032,300.626c-0.859,15.194,11.231,27.976,26.437,27.976h23.961  C192.679,353.583,180.588,340.8,181.447,325.607z"/>
<g>
	<circle style="fill:#A56825;" cx="196.92" cy="163.49" r="10.742"/>
	<circle style="fill:#A56825;" cx="227.964" cy="92.081" r="10.742"/>
	<circle style="fill:#A56825;" cx="226.759" cy="234.91" r="10.742"/>
	<circle style="fill:#A56825;" cx="190.953" cy="300.948" r="10.742"/>
</g>
<g>
	<circle style="fill:#914D09;" cx="307.286" cy="187.563" r="10.742"/>
	<circle style="fill:#914D09;" cx="309.673" cy="47.92" r="10.742"/>
	<circle style="fill:#914D09;" cx="283.415" cy="119.532" r="10.742"/>
	<circle style="fill:#914D09;" cx="285.241" cy="257.981" r="10.742"/>
	<circle style="fill:#914D09;" cx="321.047" cy="322.432" r="10.742"/>
</g>
<path style="fill:#E5B94C;" d="M244.965,477.089V353.583h-23.871v123.506c0,19.287,15.623,34.911,34.911,34.911  c4.19,0,8.209-0.74,11.933-2.095C254.533,505.031,244.965,492.183,244.965,477.089z"/>
<g>
</g>
<g>
</g>
<g>
</g>
<g>
</g>
<g>
</g>
<g>
</g>
<g>
</g>
<g>
</g>
<g>
</g>
<g>
</g>
<g>
</g>
<g>
</g>
<g>
</g>
<g>
</g>
<g>
</g>
</svg>
