<?xml version="1.0" encoding="iso-8859-1"?>
<!-- Generator: Adobe Illustrator 19.0.0, SVG Export Plug-In . SVG Version: 6.00 Build 0)  -->
<svg xmlns="http://www.w3.org/2000/svg" xmlns:xlink="http://www.w3.org/1999/xlink" version="1.1" id="Layer_1" x="0px" y="0px" viewBox="0 0 512 512" style="enable-background:new 0 0 512 512;" xml:space="preserve">
<path style="fill:#BC6491;" d="M378.474,122.474c0,12.327-1.818,24.231-5.216,35.446c-15.193,50.358-61.934,87.027-117.258,87.027  c-55.309,0-102.064-36.668-117.258-87.027c-3.399-11.215-5.216-23.119-5.216-35.446c0-2.803,0.094-5.639,0.298-8.411  C138.132,50.358,191.184,0,256,0s117.869,50.358,122.175,114.063C378.38,116.834,378.474,119.67,378.474,122.474z"/>
<path style="fill:#92496A;" d="M176.15,157.92c-3.399-11.215-5.216-23.119-5.216-35.446c0-2.803,0.094-5.639,0.298-8.411  C175.117,56.61,218.652,10.019,274.704,1.427C268.605,0.492,262.361,0.001,256,0.001c-64.816,0-117.869,50.358-122.175,114.063  c-0.203,2.773-0.298,5.608-0.298,8.411c0,12.327,1.817,24.231,5.216,35.446c15.193,50.358,61.95,87.027,117.258,87.027  c6.363,0,12.605-0.507,18.706-1.441C227.77,236.309,189.596,202.487,176.15,157.92z"/>
<path style="fill:#FFD41D;" d="M377.476,156.671l-0.397,1.251l-7.33,23.041l-7.388,23.286h-0.023l-95.203,299.602  c-1.718,5.436-6.418,8.148-11.129,8.148c-4.699,0-9.422-2.712-11.141-8.148L199.66,361.608l-57.409-180.645l-2.139-6.722  l-5.19-16.319l-0.21-0.666l-0.187-0.584L377.476,156.671L377.476,156.671z"/>
<path style="fill:#BC6491;" d="M395.829,135.459c0,11.042-7.894,20.206-18.358,22.179c-0.642,0.125-1.3,0.22-1.958,0.282  c-0.736,0.078-1.488,0.125-2.255,0.125H138.743c-0.768,0-1.52-0.047-2.255-0.125c-5.326-0.533-10.119-2.898-13.705-6.501  c-2.428-2.443-4.308-5.419-5.419-8.756c-0.783-2.255-1.19-4.668-1.19-7.206c0-9.962,6.453-18.405,15.397-21.396  c2.256-0.752,4.668-1.16,7.174-1.16h234.515c2.506,0,4.919,0.407,7.174,1.16c3.352,1.112,6.343,2.991,8.787,5.435  C393.307,123.585,395.829,129.225,395.829,135.459z"/>
<path style="fill:#FFA91F;" d="M134.711,157.256l5.401,16.986l2.139,6.722l57.409,180.645l45.205,142.244  c1.718,5.436,6.441,8.148,11.141,8.148c4.711,0,9.41-2.712,11.129-8.148l5.964-18.771l-39.24-123.473L176.45,180.963l-2.139-6.722  l-5.19-16.319l-0.21-0.666L134.711,157.256z"/>
<path style="fill:#92496A;" d="M156.98,151.42c-2.428-2.443-4.308-5.419-5.419-8.756c-0.783-2.256-1.19-4.668-1.19-7.206  c0-9.962,6.453-18.405,15.397-21.396c2.256-0.752,4.668-1.16,7.174-1.16h-34.199c-2.506,0-4.918,0.407-7.174,1.16  c-8.944,2.991-15.397,11.434-15.397,21.396c0,2.538,0.407,4.95,1.19,7.206c1.113,3.336,2.991,6.313,5.419,8.756  c3.586,3.603,8.379,5.968,13.705,6.501c0.736,0.078,1.488,0.125,2.255,0.125h34.199c-0.768,0-1.52-0.047-2.255-0.125  C165.361,157.388,160.567,155.022,156.98,151.42z"/>
<polygon style="fill:#FFA91F;" points="377.291,157.256 371.887,174.241 140.111,174.241 134.921,157.922 134.711,157.256 "/>
</svg>