<?xml version="1.0" encoding="iso-8859-1"?>
<!-- Generator: Adobe Illustrator 19.0.0, SVG Export Plug-In . SVG Version: 6.00 Build 0)  -->
<svg xmlns="http://www.w3.org/2000/svg" xmlns:xlink="http://www.w3.org/1999/xlink" version="1.1" id="Layer_1" x="0px" y="0px" viewBox="0 0 512 512" style="enable-background:new 0 0 512 512;" xml:space="preserve">
<path style="fill:#FCEDCA;" d="M342.345,89.799c0-8.266-3.35-15.749-8.773-21.172c-5.411-5.411-12.894-8.761-21.16-8.761  c16.532,0,29.933-13.401,29.933-29.933c0-8.266-3.35-15.749-8.773-21.172C328.162,3.35,320.678,0,312.412,0H199.588  c-16.532,0-29.933,13.401-29.933,29.933c0,8.266,3.35,15.749,8.773,21.172c5.411,5.411,12.894,8.761,21.16,8.761  c-16.532,0-29.933,13.401-29.933,29.933c0,8.266,3.35,15.749,8.773,21.172c5.411,5.411,12.894,8.761,21.16,8.761  c-16.532,0-29.933,13.401-29.933,29.933c0,8.266,3.35,15.749,8.773,21.172c5.411,5.411,12.894,8.761,21.16,8.761  c-16.532,0-29.933,13.401-29.933,29.933c0,8.266,3.35,15.749,8.773,21.172c5.411,5.411,12.894,8.761,21.16,8.761  c-16.532,0-29.933,13.401-29.933,29.933c0,8.266,3.35,15.749,8.773,21.172c5.411,5.411,12.894,8.761,21.16,8.761  c-16.532,0-29.933,13.401-29.933,29.933c0,8.266,3.35,15.749,8.773,21.172c5.411,5.411,12.894,8.761,21.16,8.761h112.825  c16.532,0,29.933-13.401,29.933-29.933c0-8.266-3.35-15.749-8.773-21.172c-5.411-5.411-12.894-8.761-21.16-8.761  c16.532,0,29.933-13.401,29.933-29.933c0-8.266-3.35-15.749-8.773-21.172c-5.411-5.411-12.894-8.761-21.16-8.761  c16.532,0,29.933-13.401,29.933-29.933c0-8.266-3.35-15.749-8.773-21.172c-5.411-5.411-12.894-8.761-21.16-8.761  c16.532,0,29.933-13.401,29.933-29.933c0-8.266-3.35-15.749-8.773-21.172c-5.411-5.411-12.894-8.761-21.16-8.761  C328.944,119.732,342.345,106.331,342.345,89.799z"/>
<path style="fill:#DDC89F;" d="M192.68,329.263c0-16.532,13.401-29.933,29.933-29.933c-8.266,0-15.749-3.35-21.16-8.761  c-5.422-5.422-8.773-12.906-8.773-21.172c0-16.532,13.401-29.933,29.933-29.933c-8.266,0-15.749-3.35-21.16-8.761  c-5.422-5.423-8.773-12.906-8.773-21.172c0-16.532,13.401-29.933,29.933-29.933c-8.266,0-15.749-3.35-21.16-8.761  c-5.422-5.423-8.773-12.906-8.773-21.172c0-16.532,13.401-29.933,29.933-29.933c-8.266,0-15.749-3.35-21.16-8.761  c-5.422-5.422-8.773-12.906-8.773-21.172c0-16.532,13.401-29.933,29.933-29.933c-8.266,0-15.749-3.35-21.16-8.761  c-5.422-5.422-8.773-12.906-8.773-21.172C192.68,13.401,206.081,0,222.613,0h-23.025c-16.532,0-29.933,13.401-29.933,29.933  c0,8.266,3.35,15.749,8.773,21.172c5.411,5.411,12.894,8.761,21.16,8.761c-16.532,0-29.933,13.401-29.933,29.933  c0,8.266,3.35,15.749,8.773,21.172c5.411,5.411,12.894,8.761,21.16,8.761c-16.532,0-29.933,13.401-29.933,29.933  c0,8.266,3.35,15.749,8.773,21.172c5.411,5.411,12.894,8.761,21.16,8.761c-16.532,0-29.933,13.401-29.933,29.933  c0,8.266,3.35,15.749,8.773,21.172c5.411,5.411,12.894,8.761,21.16,8.761c-16.532,0-29.933,13.401-29.933,29.933  c0,8.266,3.35,15.749,8.773,21.172c5.411,5.411,12.894,8.761,21.16,8.761c-16.532,0-29.933,13.401-29.933,29.933  c0,8.266,3.35,15.749,8.773,21.172c5.411,5.411,12.894,8.761,21.16,8.761h23.025c-8.266,0-15.749-3.35-21.16-8.761  C196.03,345.013,192.68,337.53,192.68,329.263z"/>
<path style="fill:#F9DB87;" d="M289.675,358.041v120.285C289.675,496.93,274.593,512,256,512c-18.605,0-33.675-15.07-33.675-33.675  V358.041H289.675z"/>
<rect x="222.322" y="359.196" style="fill:#E5B94C;" width="67.349" height="26.364"/>
<g>
	<path style="fill:#44B9B1;" d="M342.345,329.263c0,16.532-13.401,29.933-29.933,29.933H199.588c-8.266,0-15.749-3.35-21.16-8.761   c-5.423-5.422-8.773-12.906-8.773-21.172c0-16.532,13.401-29.933,29.933-29.933h112.825c8.266,0,15.749,3.35,21.16,8.761   C338.995,313.514,342.345,320.997,342.345,329.263z"/>
	<path style="fill:#44B9B1;" d="M342.345,209.531c0,16.532-13.401,29.933-29.933,29.933H199.588c-8.266,0-15.749-3.35-21.16-8.761   c-5.423-5.423-8.773-12.906-8.773-21.172c0-16.532,13.401-29.933,29.933-29.933h112.825c8.266,0,15.749,3.35,21.16,8.761   C338.995,193.782,342.345,201.265,342.345,209.531z"/>
	<path style="fill:#44B9B1;" d="M342.345,89.799c0,16.532-13.401,29.933-29.933,29.933H199.588c-8.266,0-15.749-3.35-21.16-8.761   c-5.423-5.422-8.773-12.906-8.773-21.172c0-16.532,13.401-29.933,29.933-29.933h112.825c8.266,0,15.749,3.35,21.16,8.761   C338.995,74.05,342.345,81.533,342.345,89.799z"/>
</g>
<g>
	<path style="fill:#1F998D;" d="M192.68,329.263c0-16.532,13.401-29.933,29.933-29.933h-23.025   c-16.532,0-29.933,13.401-29.933,29.933c0,8.266,3.35,15.749,8.773,21.172c5.411,5.411,12.894,8.761,21.16,8.761h23.025   c-8.266,0-15.749-3.35-21.16-8.761C196.03,345.013,192.68,337.53,192.68,329.263z"/>
	<path style="fill:#1F998D;" d="M192.68,209.531c0-16.532,13.401-29.933,29.933-29.933h-23.025   c-16.532,0-29.933,13.401-29.933,29.933c0,8.266,3.35,15.749,8.773,21.172c5.411,5.411,12.894,8.761,21.16,8.761h23.025   c-8.266,0-15.749-3.35-21.16-8.761C196.03,225.281,192.68,217.797,192.68,209.531z"/>
	<path style="fill:#1F998D;" d="M192.68,89.799c0-16.532,13.401-29.933,29.933-29.933h-23.025   c-16.532,0-29.933,13.401-29.933,29.933c0,8.266,3.35,15.749,8.773,21.172c5.411,5.411,12.894,8.761,21.16,8.761h23.025   c-8.266,0-15.749-3.35-21.16-8.761C196.03,105.548,192.68,98.065,192.68,89.799z"/>
</g>
<path style="fill:#E5B94C;" d="M245.351,478.325V359.192h-23.025v119.133C222.325,496.93,237.395,512,256,512  c4.042,0,7.918-0.714,11.51-2.02C254.58,505.278,245.351,492.884,245.351,478.325z"/>
<g>
</g>
<g>
</g>
<g>
</g>
<g>
</g>
<g>
</g>
<g>
</g>
<g>
</g>
<g>
</g>
<g>
</g>
<g>
</g>
<g>
</g>
<g>
</g>
<g>
</g>
<g>
</g>
<g>
</g>
</svg>
