<?xml version="1.0" encoding="iso-8859-1"?>
<!-- Generator: Adobe Illustrator 19.0.0, SVG Export Plug-In . SVG Version: 6.00 Build 0)  -->
<svg xmlns="http://www.w3.org/2000/svg" xmlns:xlink="http://www.w3.org/1999/xlink" version="1.1" id="Layer_1" x="0px" y="0px" viewBox="0 0 512 512" style="enable-background:new 0 0 512 512;" xml:space="preserve">
<path style="fill:#F9DB87;" d="M290.554,352.865v124.587c0,19.087-15.473,34.548-34.548,34.548  c-19.087,0-34.548-15.461-34.548-34.548V352.865H290.554z"/>
<g>
	<path style="fill:#E5B94C;" d="M245.08,477.452V355.227h-23.623v122.224c0,19.087,15.461,34.548,34.548,34.548   c4.147,0,8.124-0.732,11.809-2.073C254.55,505.103,245.08,492.388,245.08,477.452z"/>
	<rect x="221.464" y="355.227" style="fill:#E5B94C;" width="69.097" height="27.048"/>
</g>
<path style="fill:#EA587F;" d="M376.47,120.476v209.699c0,13.831-11.209,25.052-25.04,25.052H160.582  c-13.831,0-25.052-11.221-25.052-25.052V120.476C135.53,53.943,189.472,0,256.006,0S376.47,53.943,376.47,120.476z"/>
<path style="fill:#CE3E6B;" d="M159.153,330.176V120.476c0-62.547,47.674-113.962,108.665-119.899C263.931,0.2,259.992,0,256.006,0  C189.472,0,135.53,53.943,135.53,120.476v209.699c0,13.831,11.221,25.052,25.052,25.052h23.623  C170.373,355.227,159.153,344.007,159.153,330.176z"/>

</svg>
