<?xml version="1.0" encoding="iso-8859-1"?>
<!-- Generator: Adobe Illustrator 19.0.0, SVG Export Plug-In . SVG Version: 6.00 Build 0)  -->
<svg xmlns="http://www.w3.org/2000/svg" xmlns:xlink="http://www.w3.org/1999/xlink" version="1.1" id="Layer_1" x="0px" y="0px" viewBox="0 0 512 512" style="enable-background:new 0 0 512 512;" xml:space="preserve">
<path style="fill:#E85858;" d="M359.382,358.824H152.618c-22.274,0-37.865-22.008-30.479-43.024L225.521,21.593  C230.576,7.19,243.282,0,256,0c12.706,0,25.413,7.19,30.479,21.593l103.382,294.208  C397.247,336.816,381.656,358.824,359.382,358.824z"/>
<path style="fill:#CE3E3E;" d="M144.717,315.801L248.099,21.593c3.53-10.058,10.795-16.586,19.186-19.617  C263.662,0.666,259.833,0,256,0c-12.718,0-25.424,7.19-30.479,21.593L122.139,315.801c-7.386,21.016,8.205,43.024,30.479,43.024  h22.578C152.923,358.824,137.331,336.816,144.717,315.801z"/>
<path style="fill:#F9DB87;" d="M289.753,357.666v120.578c0,18.65-15.118,33.757-33.757,33.757c-18.65,0-33.757-15.107-33.757-33.757  V357.666H289.753z"/>
<rect x="222.24" y="358.824" style="fill:#E5B94C;" width="67.513" height="26.428"/>
<path style="fill:#A3E261;" d="M359.382,358.824H152.618c-22.274,0-37.865-22.008-30.479-43.024h267.722  C397.247,336.816,381.656,358.824,359.382,358.824z"/>
<path style="fill:#90BC61;" d="M144.717,315.801h-22.578c-7.386,21.016,8.205,43.024,30.479,43.024h22.578  C152.923,358.824,137.331,336.816,144.717,315.801z"/>
<path style="fill:#E5B94C;" d="M245.321,478.243V358.82H222.24v119.424c0,18.65,15.107,33.757,33.757,33.757  c4.052,0,7.938-0.715,11.538-2.025C254.574,505.261,245.321,492.838,245.321,478.243z"/>
<g>
</g>
<g>
</g>
<g>
</g>
<g>
</g>
<g>
</g>
<g>
</g>
<g>
</g>
<g>
</g>
<g>
</g>
<g>
</g>
<g>
</g>
<g>
</g>
<g>
</g>
<g>
</g>
<g>
</g>
</svg>
